<svg width="42" height="41" viewBox="0 0 42 41" fill="none" xmlns="http://www.w3.org/2000/svg">
<path fill-rule="evenodd" clip-rule="evenodd" d="M9.1723 13.3738C5.12812 12.6491 2.50692 9.77653 2.61138 7.60024C2.78001 4.0871 5.3157 2.32142 10.7835 2.29892C10.8059 2.29882 10.8295 2.29879 10.8541 2.29882C11.4623 2.29959 11.9735 1.84241 12.0405 1.23793C12.1027 0.675947 11.6975 0.16994 11.1355 0.107731C11.1176 0.105742 11.0995 0.104229 11.0815 0.103194C11.0085 0.0989892 10.9422 0.0950146 10.8825 0.0912509C9.25546 -0.0113748 7.45677 -0.0716888 6.48698 0.158035C2.44041 1.11658 0.194951 3.55631 0.0068475 7.47522C-0.142723 10.5913 2.17465 13.6378 5.43829 16.0469C5.46984 16.0702 5.50169 16.0931 5.53384 16.1156C4.90226 17.2207 4.49798 18.4555 4.32101 19.8199C3.70548 23.7692 4.27866 26.226 3.83893 27.8533C3.3992 29.4805 1.39972 30.3733 0.610321 32.1909C-0.179078 34.0085 -0.0328383 34.8047 0.198095 36.2364C0.33509 37.0857 0.643422 38.3263 1.12309 39.9582C1.23184 40.3282 1.57136 40.5823 1.95699 40.5823H4.84668C5.32671 40.5823 5.71586 40.1931 5.71586 39.7131L5.71585 39.2763C5.71585 38.7963 5.32671 38.4072 4.84668 38.4072C4.84332 38.4072 4.83995 38.4072 4.83658 38.4072C4.44673 38.4118 4.11418 38.3088 3.83893 38.0983C3.144 37.5668 3.08631 37.2702 3.08631 36.2364C3.08631 35.5472 3.33719 34.8538 3.83893 34.1562C5.85392 32.8463 7.53781 31.8233 9.02375 31.0704C9.17678 32.5811 9.47773 33.9543 9.92657 35.19C10.3985 36.4894 11.2178 38.1427 12.3843 40.1498C12.5399 40.4175 12.8262 40.5823 13.1358 40.5823H15.4223C15.8936 40.5823 16.279 40.2066 16.2912 39.7355L16.3013 39.3404C16.3135 38.8678 15.9458 38.4721 15.4735 38.4498L14.2777 38.3932C13.9244 38.3765 13.6165 38.1474 13.4989 37.8138L13.4989 37.8138C13.1028 36.6895 12.9402 35.5842 13.0111 34.498C13.091 33.2736 13.4983 31.6035 14.2329 29.4877C17.2845 29.4604 23.4749 30.7842 24.8996 30.9027C25.236 30.9307 25.5814 30.9288 25.9357 30.8972C26.2166 31.7727 26.3946 32.6978 26.4696 33.6725C26.5575 34.8137 26.5655 36.82 26.4937 39.6914C26.4935 39.6986 26.4934 39.7058 26.4934 39.7131C26.4934 40.1931 26.8825 40.5823 27.3626 40.5823H29.7378C30.2178 40.5823 30.6069 40.1931 30.6069 39.7131V39.1166C30.6069 38.6365 30.2178 38.2474 29.7378 38.2474H29.3719C29.2731 38.2474 29.175 38.23 29.0821 38.196C28.6448 38.036 28.42 37.5517 28.5801 37.1143L28.58 37.1143C29.0447 35.8446 29.3935 34.5964 29.6265 33.3698L32.4825 40.0546C32.6192 40.3746 32.9337 40.5823 33.2818 40.5823H36.437C36.9171 40.5823 37.3062 40.1931 37.3062 39.7131V39.2691C37.3062 38.8477 37.0038 38.4869 36.5888 38.4133L35.0876 38.147C34.8984 38.1135 34.7256 38.0182 34.5963 37.876C33.9861 37.205 33.5928 36.3688 33.4164 35.3672C32.9815 32.898 32.7054 32.6308 33.4164 30.2563C33.6486 29.4805 35.3468 28.7245 36.4341 25.2885C37.1302 23.0889 37.7476 19.3525 38.2865 14.0791L38.2865 14.0792C38.3265 13.6879 38.6242 13.3723 39.0124 13.3095L40.6818 13.0396C40.9393 12.998 41.1646 12.8428 41.2953 12.617L42.6168 10.3341C42.6282 10.3144 42.6403 10.2952 42.6532 10.2765C42.7892 10.0791 42.8571 9.87555 42.8571 9.66601C42.8571 9.49803 42.8135 9.32457 42.7261 9.14565C42.6799 9.05108 42.6169 8.96568 42.5402 8.89361L40.8131 7.27112C40.6921 7.1575 40.6062 7.01163 40.5656 6.85076L40.4675 6.46292C40.38 6.11702 40.1882 5.80643 39.9181 5.57328C39.3995 5.12557 39.0164 4.8257 38.7689 4.67368C38.4592 4.48344 37.8186 4.2558 36.8471 3.99077C37.3407 3.29998 37.6116 2.69547 37.6598 2.17723C37.7321 1.39988 37.7939 0.630218 37.4787 0.600139C37.2685 0.580086 36.7352 1.15956 35.8787 2.33857C35.9461 0.849158 35.7957 0.19123 35.4276 0.364785C35.0595 0.538341 34.251 1.54218 33.0021 3.37629L31.7829 4.76506C31.1909 5.43941 30.7554 6.23637 30.5075 7.09882C29.892 9.24107 29.306 10.7836 28.7497 11.7263C27.757 13.4086 26.5388 15.479 22.5809 15.1728C18.623 14.8666 17.2927 14.0646 14.6557 13.6502C13.4115 13.4546 12.0537 13.3228 10.5823 13.2548C10.1026 13.2327 9.62915 13.2741 9.1723 13.3738Z" fill="black"/>
</svg>
