<svg width="43" height="41" viewBox="0 0 43 41" fill="none" xmlns="http://www.w3.org/2000/svg">
<path d="M33.5 7.6C32.4667 7.6 31.575 7.225 30.825 6.475C30.075 5.725 29.7 4.83333 29.7 3.8C29.7 2.76667 30.0667 1.875 30.8 1.125C31.5333 0.375 32.4333 0 33.5 0C34.5333 0 35.4167 0.375 36.15 1.125C36.8833 1.875 37.25 2.76667 37.25 3.8C37.25 4.83333 36.8833 5.725 36.15 6.475C35.4167 7.225 34.5333 7.6 33.5 7.6ZM30.15 40.1V23.2C30.15 22.2333 29.9083 21.3667 29.425 20.6C28.9417 19.8333 28.25 19.2833 27.35 18.95L29.55 12.65C29.8167 11.8167 30.3167 11.15 31.05 10.65C31.7833 10.15 32.6 9.9 33.5 9.9C34.4 9.9 35.2167 10.15 35.95 10.65C36.6833 11.15 37.1833 11.8167 37.45 12.65L42.75 27.65H37.05V40.1H30.15ZM21.75 19.05C20.8833 19.05 20.1417 18.75 19.525 18.15C18.9083 17.55 18.6 16.8167 18.6 15.95C18.6 15.0833 18.9083 14.3417 19.525 13.725C20.1417 13.1083 20.8833 12.8 21.75 12.8C22.6167 12.8 23.3583 13.1 23.975 13.7C24.5917 14.3 24.9 15.0333 24.9 15.9C24.9 16.8 24.5917 17.55 23.975 18.15C23.3583 18.75 22.6167 19.05 21.75 19.05ZM7.6 7.6C6.56667 7.6 5.675 7.225 4.925 6.475C4.175 5.725 3.8 4.83333 3.8 3.8C3.8 2.76667 4.175 1.875 4.925 1.125C5.675 0.375 6.56667 0 7.6 0C8.63334 0 9.51667 0.375 10.25 1.125C10.9833 1.875 11.35 2.76667 11.35 3.8C11.35 4.83333 10.9833 5.725 10.25 6.475C9.51667 7.225 8.63334 7.6 7.6 7.6ZM3.8 40.1V25.65H0.300003V13.35C0.300003 12.4167 0.633337 11.6167 1.3 10.95C1.96667 10.2833 2.76667 9.95 3.7 9.95H11.45C12.3833 9.95 13.1833 10.2833 13.85 10.95C14.5167 11.6167 14.85 12.4167 14.85 13.35V25.65H11.35V40.1H3.8ZM18.85 40.1V31.55H16.35V23.5C16.35 22.8 16.6 22.2083 17.1 21.725C17.6 21.2417 18.2 21 18.9 21H24.6C25.3 21 25.9 21.2417 26.4 21.725C26.9 22.2083 27.15 22.8 27.15 23.5V31.55H24.65V40.1H18.85Z" fill="black"/>
</svg>
