<svg width="49" height="38" viewBox="0 0 49 38" fill="none" xmlns="http://www.w3.org/2000/svg">
<path fill-rule="evenodd" clip-rule="evenodd" d="M33.4551 3.52858C40.5372 -4.11985 41.7325 2.82937 46.9473 4.2903C47.5762 4.46608 48.045 4.50905 48.002 4.80593C47.545 7.80202 46.5684 8.36843 45.4786 8.39577C44.2715 8.43093 43.2911 8.40749 42.5684 8.75124C41.6465 9.18874 40.9786 9.75515 40.4903 10.4192L33.084 6.64187C33.3184 5.76687 33.4473 4.73561 33.4551 3.52858ZM39.7168 11.8645C38.1387 16.0676 40.2442 22.3176 33.1895 24.6184C32.7637 28.1966 32.7833 31.7786 33.2833 35.3567L34.1387 35.2669C35.6817 35.1028 35.67 36.5051 34.9395 37.4075H30.377C30.045 33.1184 29.2168 28.4231 29.5606 24.3294C27.1583 24.9739 25.709 24.802 23.0997 23.8059C21.834 23.3255 16.6075 20.2005 15.1895 21.47C14.3926 22.1887 16.5215 25.0559 11.2637 30.1458L11.3575 35.1809H12.2481C13.5957 35.1809 13.5215 36.5286 13.0333 37.4075H10.4356C8.70903 37.4075 9.07231 37.5911 9.04887 35.7747L9.00591 31.8567L8.72856 29.427C8.73247 27.9817 9.77153 26.4426 8.77934 22.9973C8.12309 20.72 8.17778 18.9036 6.46294 18.6536C4.87309 21.8606 3.34966 24.7981 2.01372 28.1614C1.92387 28.388 1.79887 28.6028 1.6895 28.8255C0.166062 32.3333 -0.470657 29.6966 0.380906 27.6145L0.951218 26.2239C1.68169 23.2825 3.74028 17.7669 5.68169 15.72C13.002 7.99733 27.8379 15.302 32.209 8.61843L39.7168 11.8645Z" fill="black"/>
</svg>
