<svg width="49" height="49" viewBox="0 0 49 49" fill="none" xmlns="http://www.w3.org/2000/svg">
<path d="M24.7 48.6999C21.3897 48.6999 18.2764 48.0694 15.3601 46.8083C12.4438 45.5472 9.90197 43.833 7.73448 41.6655C5.56699 39.498 3.85271 36.9561 2.59162 34.0399C1.33054 31.1236 0.699997 28.0103 0.699997 24.7C0.699997 21.3896 1.33054 18.2763 2.59162 15.3601C3.85271 12.4438 5.56699 9.90192 7.73448 7.73443C9.90197 5.56695 12.4438 3.85266 15.3601 2.59158C18.2764 1.33049 21.3897 0.699951 24.7 0.699951C28.0103 0.699951 31.1236 1.33049 34.0399 2.59158C36.9562 3.85266 39.498 5.56695 41.6655 7.73443C43.833 9.90192 45.5473 12.4438 46.8084 15.3601C48.0695 18.2763 48.7 21.3896 48.7 24.7V27.833C48.7 30.1187 47.902 32.03 46.3059 33.5669C44.7098 35.1039 42.7296 35.8724 40.365 35.8724C38.9463 35.8724 37.5965 35.5177 36.3158 34.8083C35.035 34.099 34.0596 33.1137 33.3897 31.8527C32.365 33.1926 31.0941 34.1975 29.5768 34.8674C28.0596 35.5374 26.434 35.8724 24.7 35.8724C21.5867 35.8724 18.9364 34.7886 16.7493 32.6211C14.5621 30.4536 13.4685 27.8133 13.4685 24.7C13.4685 21.5866 14.5621 18.9266 16.7493 16.7197C18.9364 14.5128 21.5867 13.4093 24.7 13.4093C27.8133 13.4093 30.4635 14.5128 32.6507 16.7197C34.8379 18.9266 35.9315 21.5866 35.9315 24.7V27.7147C35.9315 28.9364 36.365 29.9512 37.232 30.7591C38.099 31.5669 39.1433 31.9709 40.365 31.9709C41.5867 31.9709 42.631 31.5669 43.498 30.7591C44.365 29.9512 44.7985 28.9364 44.7985 27.7147V24.7C44.7985 19.1039 42.8478 14.3551 38.9463 10.4536C35.0448 6.55217 30.2961 4.60143 24.7 4.60143C19.1039 4.60143 14.3552 6.55217 10.4537 10.4536C6.55221 14.3551 4.60147 19.1039 4.60147 24.7C4.60147 30.296 6.55221 35.0448 10.4537 38.9463C14.3552 42.8477 19.1039 44.7985 24.7 44.7985H37.3502V48.6999H24.7ZM24.7 31.9709C26.7493 31.9709 28.4832 31.2714 29.902 29.8724C31.3207 28.4733 32.03 26.7492 32.03 24.7C32.03 22.6113 31.3207 20.8576 29.902 19.4389C28.4832 18.0201 26.7493 17.3108 24.7 17.3108C22.6507 17.3108 20.9167 18.0201 19.498 19.4389C18.0793 20.8576 17.3699 22.6113 17.3699 24.7C17.3699 26.7492 18.0793 28.4733 19.498 29.8724C20.9167 31.2714 22.6507 31.9709 24.7 31.9709Z" fill="black"/>
</svg>
