<svg width="33" height="45" viewBox="0 0 33 45" fill="none" xmlns="http://www.w3.org/2000/svg">
<g clip-path="url(#clip0_4_3)">
<path d="M28.1008 7.70148L23.2018 12.5799C24.6487 14.6388 25.4974 17.1449 25.4974 19.8487C25.4974 23.3536 24.0705 26.5287 21.7635 28.8251C19.8667 30.7139 17.3751 32.0097 14.5931 32.4111V35.0122H19.7982C20.9434 35.0122 21.8728 35.9368 21.8728 37.0772C21.8728 38.2184 20.9434 39.143 19.7982 39.143H14.5931V42.6842C14.5931 43.8254 13.6638 44.75 12.5185 44.75C11.3725 44.75 10.444 43.8254 10.444 42.6842V39.143H5.23889C4.0928 39.143 3.16431 38.2184 3.16431 37.0772C3.16431 35.9368 4.0928 35.0122 5.23889 35.0122H10.444V32.336C7.8475 31.8638 5.52498 30.6086 3.73389 28.8251C1.42698 26.5287 0 23.3545 0 19.8487C0 16.3429 1.42698 13.1686 3.73389 10.8714C6.04081 8.57512 9.22853 7.1533 12.7483 7.1533C15.5771 7.1533 18.19 8.0701 20.3045 9.62228L25.3162 4.63166H21.7263C20.5802 4.63166 19.6517 3.70708 19.6517 2.56583C19.6517 1.42457 20.5802 0.5 21.7263 0.5H30.1754C31.3206 0.5 32.25 1.42457 32.25 2.56583V11.2418C32.25 12.3822 31.3206 13.3068 30.1754 13.3068C29.0293 13.3068 28.1008 12.3822 28.1008 11.2418V7.70148ZM18.8298 13.7936C17.2737 12.2441 15.1237 11.285 12.7483 11.285C10.3738 11.285 8.22375 12.2441 6.6676 13.7936C5.11145 15.3424 4.14915 17.4842 4.14915 19.8487C4.14915 22.2132 5.11145 24.355 6.6676 25.9037C8.22375 27.4533 10.3738 28.4124 12.7483 28.4124C15.1237 28.4124 17.2737 27.4533 18.8298 25.9037C20.386 24.355 21.3483 22.2132 21.3483 19.8487C21.3483 17.4842 20.386 15.3424 18.8298 13.7936Z" fill="black"/>
</g>
<defs>
<clipPath id="clip0_4_3">
<rect width="32.25" height="44.25" fill="white" transform="translate(0 0.5)"/>
</clipPath>
</defs>
</svg>
