<svg width="48" height="48" viewBox="0 0 48 48" fill="none" xmlns="http://www.w3.org/2000/svg">
<path d="M15.55 45.1501L12.45 42.8V33.6501H9.65C8.75 33.6501 7.975 33.325 7.325 32.675C6.675 32.025 6.35 31.25 6.35 30.35V14.65H5.85C5.41667 14.6167 5.05 14.4417 4.75 14.125C4.45 13.8084 4.3 13.4334 4.3 13C4.3 12.5334 4.45834 12.1417 4.775 11.825C5.09167 11.5084 5.48334 11.35 5.95 11.35H12.45V7.05005H11C10.5333 7.05005 10.1417 6.89172 9.825 6.57505C9.50834 6.25838 9.35 5.86672 9.35 5.40005C9.35 4.93338 9.50834 4.55005 9.825 4.25005C10.1417 3.95005 10.5333 3.80005 11 3.80005H17C17.4667 3.80005 17.8583 3.95838 18.175 4.27505C18.4917 4.59172 18.65 4.98338 18.65 5.45005C18.65 5.91672 18.4917 6.30005 18.175 6.60005C17.8583 6.90005 17.4667 7.05005 17 7.05005H15.55V11.35H22.05C22.5167 11.35 22.9083 11.5084 23.225 11.825C23.5417 12.1417 23.7 12.5334 23.7 13C23.7 13.4667 23.55 13.85 23.25 14.15C22.95 14.45 22.5833 14.6167 22.15 14.65H21.65V30.35C21.65 31.25 21.325 32.025 20.675 32.675C20.025 33.325 19.25 33.6501 18.35 33.6501H15.55V45.1501ZM9.65 30.35H18.35V26.55H14.5C14.2 26.55 13.95 26.4501 13.75 26.25C13.55 26.05 13.45 25.8 13.45 25.5C13.45 25.2001 13.55 24.9501 13.75 24.75C13.95 24.55 14.2 24.4501 14.5 24.4501H18.35V20.55H14.5C14.2 20.55 13.95 20.4501 13.75 20.25C13.55 20.05 13.45 19.8 13.45 19.5C13.45 19.2 13.55 18.95 13.75 18.75C13.95 18.55 14.2 18.45 14.5 18.45H18.35V14.65H9.65V30.35ZM30.05 44.2001C29.1833 44.2001 28.425 43.875 27.775 43.225C27.125 42.575 26.8 41.8167 26.8 40.9501V27.7001C26.8 26.6334 26.9333 25.8167 27.2 25.25C27.4667 24.6834 27.8167 24.1667 28.25 23.7001C28.9833 23 29.45 22.4667 29.65 22.1C29.85 21.7334 29.95 21.35 29.95 20.9501V19.45H29.45C28.9833 19.4167 28.6 19.2417 28.3 18.925C28 18.6084 27.85 18.2334 27.85 17.8C27.85 17.3334 28.0167 16.9417 28.35 16.625C28.6833 16.3084 29.0667 16.15 29.5 16.15H39.5C39.9667 16.15 40.3583 16.3084 40.675 16.625C40.9917 16.9417 41.15 17.3334 41.15 17.8C41.15 18.2667 41 18.65 40.7 18.95C40.4 19.25 40.0167 19.4167 39.55 19.45H39.05V20.9501C39.05 21.3167 39.175 21.7167 39.425 22.15C39.675 22.5834 40.1667 23.15 40.9 23.85C41.3333 24.3167 41.6583 24.8084 41.875 25.3251C42.0917 25.8417 42.2 26.6334 42.2 27.7001V40.9501C42.2 41.8167 41.875 42.575 41.225 43.225C40.575 43.875 39.8167 44.2001 38.95 44.2001H30.05ZM30.05 28.9501H38.95V27.7001C38.95 27.1 38.7833 26.5667 38.45 26.1C38.1167 25.6334 37.75 25.1667 37.35 24.7001C36.85 24.0667 36.4917 23.4917 36.275 22.975C36.0583 22.4584 35.95 21.8167 35.95 21.05V19.45H33.05V21.05C33.05 21.7834 32.95 22.4084 32.75 22.925C32.55 23.4417 32.2 24.0167 31.7 24.65C31.3 25.1167 30.925 25.5917 30.575 26.0751C30.225 26.5584 30.05 27.1 30.05 27.7001V28.9501ZM30.05 34.9501H38.95V31.05H30.05V34.9501ZM30.05 40.9501H38.95V37.05H30.05V40.9501ZM30.05 34.9501H38.95H30.05Z" fill="black"/>
</svg>
